<?xml version="1.0" encoding="UTF-8"?>
<svg id="Layer_1" xmlns="http://www.w3.org/2000/svg" version="1.1" viewBox="0 0 792 612">
  <!-- Generator: Adobe Illustrator 29.4.0, SVG Export Plug-In . SVG Version: 2.1.0 Build 152)  -->
  <path d="M318,270.74c-2.5-2.5-5.73-3.56-9.52-3.19-7.47.72-11.71,6.52-10.9,14.87l3.4,35.13-7.98.83,2.26,6.87,6.41-.62,1.37,14.17,7.47-.72-1.37-14.17,9.12-.88,1.37,14.17,7.47-.72-5.46-56.39c-.45-4.66-1.37-7.02-3.65-9.35ZM308.45,316.82l-3.4-35.13c-.42-4.37.76-6.34,3.96-6.65,3.3-.32,4.73,1.31,5.16,5.77l3.4,35.13-9.12.88Z"/>
  <polygon points="353.51 266.22 346.21 266.62 341.58 289.13 334.62 267.25 327.32 267.65 338.05 301.44 331.06 336.19 338.27 335.8 342.89 313.18 349.95 335.16 357.25 334.76 346.43 300.98 353.51 266.22"/>
  <path d="M366.13,288.11c.08,5.46,1.22,9.73,4.04,15.74,3.82,7.94,4.44,9.78,4.5,14.17.08,5.46-2.17,11.44-6.19,16.48l9.55-.14c2.66-4.92,4.22-11.18,4.14-16.83-.07-4.97-1-8.18-4.82-16.02-2.82-5.81-3.65-9.02-3.71-13.5-.12-8.29,3.27-16.33,9.42-22.37l-10.14.15c-4.59,6.31-6.91,14.15-6.79,22.34Z"/>
  <path d="M414.57,300.3c.47-13.25,6.21-23.88,18.26-33.6l-11.01-.39c-9.33,10.01-14.32,21.35-14.75,33.73-.45,12.67,3.81,24.72,12.33,34.88l11.01.39c-11.53-10.55-16.32-21.26-15.84-35Z"/>
  <path d="M462.02,271.14c-2.03-2.89-5.04-4.48-8.83-4.77-7.49-.56-12.65,4.43-13.28,12.79l-2.63,35.2-10.79-.81,3.84,7.43,6.42.48-1.06,14.2,7.49.56,1.06-14.2,9.14.68-1.06,14.2,7.49.56,4.23-56.49c.35-4.67-.15-7.15-2-9.83ZM456.53,280.41l-2.64,35.2-9.14-.68,2.64-35.2c.33-4.38,1.83-6.12,5.04-5.88,3.31.25,4.44,2.09,4.1,6.57Z"/>
  <polygon points="485.6 278.89 499.44 280.58 500.35 273.12 479.05 270.52 473.32 317.47 462.58 316.15 466.07 323.75 472.46 324.53 470.73 338.66 478.18 339.57 479.91 325.44 493.75 327.13 494.61 320.07 480.77 318.38 485.6 278.89"/>
  <path d="M505.72,321.85l-10.66-1.88,3.08,7.77,6.34,1.12-.49,2.78c-1.34,7.59,1.38,11.83,8.2,13.03l10.95,1.93,1.3-7.39-10.95-1.93c-2.4-.42-2.68-1.07-2.11-4.33l.49-2.78,13.73,2.42,1.24-7.01-13.73-2.42,6.91-39.18,13.73,2.42,1.3-7.39-21.13-3.73-8.22,46.57Z"/>
  <polygon points="269.46 296.56 256.55 273.31 253.23 345.99 261.16 344.71 262.45 296.34 271.76 313.6 275.15 294.04 289.24 340.98 297.06 339.88 276.03 270.4 269.46 296.56"/>
  <path d="M364.77,265.94l-7.5.23.46,14.72c2.21-.95,3.55-1.87,4.96-3.76,1.78-2.49,2.31-4.17,2.19-7.87l-.1-3.31Z"/>
  <polygon points="521.58 267.32 521.56 271.38 538.99 271.38 539.01 267.33 521.58 267.32"/>
</svg>