<?xml version="1.0" encoding="UTF-8"?>
<svg id="Layer_1" xmlns="http://www.w3.org/2000/svg" version="1.1" viewBox="0 0 800 800">
  <!-- Generator: Adobe Illustrator 29.2.1, SVG Export Plug-In . SVG Version: 2.1.0 Build 116)  -->
  <defs>
    <style>
      .st0 {
        stroke-linecap: round;
        stroke-linejoin: round;
      }

      .st0, .st1 {
        fill: none;
        stroke: #000;
        stroke-width: 33.3px;
      }

      .st1 {
        stroke-miterlimit: 133.3;
      }
    </style>
  </defs>
  <path class="st0" d="M133.3,300v-84.3c0-10.3,2.4-20.6,7-29.8l26.3-52.6h166.7l33.3,66.7h333.3c18.4,0,33.3,14.9,33.3,33.3v366.7c0,36.8-29.8,66.7-66.7,66.7h-66.7"/>
  <path class="st1" d="M574.5,300H77c-22,0-37.9,20.9-32.2,42.1l75.1,275.4c7.9,29,34.3,49.1,64.3,49.1h472.1c22,0,37.9-20.9,32.2-42.1l-81.8-300c-4-14.5-17.1-24.6-32.2-24.6Z"/>
</svg>