<?xml version="1.0" encoding="UTF-8"?>
<svg id="Layer_1" xmlns="http://www.w3.org/2000/svg" version="1.1" viewBox="0 0 425.2 425.2">
  <!-- Generator: Adobe Illustrator 29.8.2, SVG Export Plug-In . SVG Version: 2.1.1 Build 3)  -->
  <defs>
    <style>
      .st0 {
        fill: #231f20;
      }
    </style>
  </defs>
  <path class="st0" d="M4.32,212.6C4.32,97.65,97.65,4.32,212.6,4.32s208.27,93.32,208.27,208.27-93.32,208.27-208.27,208.27S4.32,327.55,4.32,212.6ZM79.22,319.14l102.13-106.54-102.13-106.54c-23.23,29.24-37.25,66.49-37.25,106.54s14.02,77.3,37.25,106.54ZM193.37,172.55V43.18c-32.84,3.2-63.68,16.42-88.12,36.05l88.12,93.32ZM193.37,252.65l-88.12,93.32c24.43,19.63,55.27,32.84,88.12,36.05v-129.37ZM231.82,172.55l88.12-93.32c-24.43-19.63-55.27-32.84-88.12-36.05v129.37ZM231.82,252.65v129.37c32.84-3.2,63.68-16.42,88.12-36.05l-88.12-93.32ZM345.97,106.06l-102.13,106.54,102.13,106.54c23.23-29.24,37.25-66.09,37.25-106.54s-14.02-77.3-37.25-106.54Z"/>
</svg>