<?xml version="1.0" encoding="UTF-8"?>
<svg id="svg4361" xmlns="http://www.w3.org/2000/svg" xmlns:xlink="http://www.w3.org/1999/xlink" xmlns:svg="http://www.w3.org/2000/svg" xmlns:rdf="http://www.w3.org/1999/02/22-rdf-syntax-ns#" xmlns:dc="http://purl.org/dc/elements/1.1/" xmlns:cc="http://creativecommons.org/ns#" version="1.1" viewBox="0 0 386.48 117.62">
  <!-- Generator: Adobe Illustrator 29.4.0, SVG Export Plug-In . SVG Version: 2.1.0 Build 152)  -->
  <defs>
    <style>
      .st0 {
        fill: none;
      }

      .st1, .st2 {
        fill-rule: evenodd;
      }

      .st2 {
        fill: #152328;
      }

      .st3 {
        clip-path: url(#clippath);
      }
    </style>
    <clipPath id="clippath">
      <polygon class="st0" points="1 117.19 385.49 117.19 385.49 1 1 1 1 117.19 1 117.19"/>
    </clipPath>
  </defs>
  <g id="g4383">
    <path id="path4385" d="M261.78,1h27.74v84.6l12.76-.08v14.22h-40.51V1Z"/>
  </g>
  <g class="st3">
    <g id="g4395">
      <path id="path4397" class="st1" d="M48.72,1.83c15.86,0,20.53,12.68,21.08,25.24.05,1.3.14,5.35,0,8.6-.44,9.9-3.86,15.78-9.43,21.36,1.36,2.06,7.33,6.49,7.49,13.04.08,3.72-.55,7.93,0,21.36.44,10.84,5.22,22.94,5.55,24.96h-25.52c-2.19-3.05-5.74-15.53-5.82-23.85-.11-12.34,0-13.4,0-18.86,0-.06,1.03-9.7-3.33-9.7h-8.05c-.92,0-1.39.53-1.39,1.38-.06,11.12,0,26.05,0,50.76-1.8,1.08-10.18.14-28.3,0V1.83s47.72,0,47.72,0ZM30.68,17.09h7.77c2.08,0,2.5,3.05,2.5,3.88v24.41c0,1.86-1.69,3-3.88,3.05-1.22.03-6.72-.42-7.49,0v-29.12c-.5-1.31.05-2.22,1.11-2.22"/>
    </g>
    <g id="g4399">
      <path id="path4401" class="st1" d="M100.04,1.56c1.03-.03,5.83,0,10.54,0,0,0,21.08,1.49,21.08,15.81v75.72s.58,4.3,1.67,6.1v1.11h-20.25s-4.3-2.08-7.21-4.99c-2.03,1.36-6.55,5.27-11.93,5.27h-3.05c-12.32,0-16.93-13.72-16.93-17.47v-23.3c0-6.16,8.24-15.53,17.2-15.53h2.22c4.52,0,11.49,4.38,11.65,4.44v-31.62c0-.92-.86-1.94-2.22-1.94-1.44,0-2.22,1.72-2.22,2.5v23.58h-26.36v-22.75c0-5.94,7.68-16.25,25.8-16.92M103.09,57.31c1.25,0,2.22,2.1,2.22,3.05v23.02c0,.66-.81,3.33-2.22,3.33-.78,0-2.22-1.05-2.22-3.05v-23.85c0-.44.36-2.5,2.22-2.5"/>
    </g>
    <g id="g4403">
      <path id="path4405" class="st1" d="M140.27,1.28h43c4.05,0,12.49,4.82,12.49,13.59v43.55c0,8.93-8.93,13.23-12.21,13.31-8.46.25-16.78.07-18.03.18v27.01c0,1.17-.69,1.39-1.39,1.39h-25.25V2.11c.33-.47.78-.83,1.39-.83M170.83,21.12v31.2c0,3.52-1.99,4.91-5.04,5.27V17.09s4.39-.02,5.04,4.03"/>
    </g>
    <g id="g4407">
      <path id="path4409" class="st1" d="M224.61,1.28h7.77c4,0,12.68,1.94,19.14,6.93,2.28,1.75,4.71,6.34,4.71,9.43v77.11c0,1,.53,1.94,1.94,4.99h-24.97c-1.47-1.08-1.69-3.88-2.77-3.88,0,0-5.58,4.16-10.55,4.16h-3.05c-10.74,0-16.92-11.84-16.92-16.64v-20.8c0-11.71,10.68-18.58,16.37-18.58h4.72c2.72,0,8.1,3.14,9.71,3.88v-31.06c0-.97-.89-2.22-2.22-2.22-.97,0-2.22.88-2.22,2.22v24.13h-26.63v-24.13c0-5.91,11.56-15.53,24.97-15.53M228.51,57.31c1.25,0,2.22,2.1,2.22,3.05v23.02c0,.66-.8,3.33-2.22,3.33-.78,0-2.22-1.05-2.22-3.05v-23.85c0-.44.36-2.5,2.22-2.5"/>
    </g>
    <g id="g4411">
      <path id="path4413" class="st1" d="M328.77,1.56c1.02-.03,5.82,0,10.54,0,0,0,21.08,1.49,21.08,15.81v75.72s.58,4.3,1.67,6.1v1.11h-20.25s-4.3-2.08-7.21-4.99c-2.03,1.36-6.55,5.27-11.93,5.27h-3.05c-12.32,0-16.92-13.72-16.92-17.47v-23.3c0-6.16,8.24-15.53,17.2-15.53h2.22c4.52,0,11.49,4.38,11.65,4.44v-31.62c0-.92-.86-1.94-2.22-1.94-1.44,0-2.22,1.72-2.22,2.5v23.58h-26.36v-22.75c0-5.94,7.69-16.25,25.8-16.92M331.83,57.31c1.25,0,2.22,2.1,2.22,3.05v23.02c0,.66-.8,3.33-2.22,3.33-.78,0-2.22-1.05-2.22-3.05v-23.85c0-.44.36-2.5,2.22-2.5"/>
    </g>
    <g id="g4415">
      <path id="path4417" class="st2" d="M376.25,14.39c2.19-.06,3.89-.94,3.89-3.31,0-1-.46-2.07-1.37-2.58-.94-.51-1.97-.58-3.01-.58h-5.38v12h1.82v-5.53h2.16l3.52,5.53h2.1l-3.74-5.53ZM372.21,12.9v-3.61h3.19c1.55,0,2.92.21,2.92,1.76,0,2.16-2.37,1.85-4.1,1.85h-2"/>
    </g>
    <g id="g4419">
      <path id="path4421" class="st2" d="M374.49,5.31c4.92,0,8.9,3.83,8.9,8.57s-3.98,8.69-8.9,8.69-8.96-3.8-8.96-8.69,3.98-8.57,8.96-8.57M374.49,24.66c6.08,0,11-4.8,11-10.79s-4.92-10.66-11-10.66-11.06,4.8-11.06,10.66,4.95,10.79,11.06,10.79"/>
    </g>
  </g>
</svg>