<?xml version="1.0" encoding="UTF-8"?>
<svg id="svg4073" xmlns="http://www.w3.org/2000/svg" xmlns:svg="http://www.w3.org/2000/svg" xmlns:sodipodi="http://sodipodi.sourceforge.net/DTD/sodipodi-0.dtd" xmlns:rdf="http://www.w3.org/1999/02/22-rdf-syntax-ns#" xmlns:inkscape="http://www.inkscape.org/namespaces/inkscape" xmlns:dc="http://purl.org/dc/elements/1.1/" xmlns:cc="http://creativecommons.org/ns#" version="1.1" viewBox="0 0 300 300">
  <!-- Generator: Adobe Illustrator 29.4.0, SVG Export Plug-In . SVG Version: 2.1.0 Build 152)  -->
  <defs>
    <style>
      .st0 {
        fill: #fff;
      }
    </style>
  </defs>
  <sodipodi:namedview id="base" bordercolor="#666666" borderopacity="1.0" fit-margin-bottom="0.5" fit-margin-left="0.5" fit-margin-right="0.5" fit-margin-top="0.5" inkscape:current-layer="layer1" inkscape:cx="130.71429" inkscape:cy="255.71422" inkscape:document-units="px" inkscape:pageopacity="0.0" inkscape:pageshadow="2" inkscape:window-height="1000" inkscape:window-maximized="1" inkscape:window-width="1920" inkscape:window-x="-8" inkscape:window-y="-8" inkscape:zoom="0.35" pagecolor="#ffffff" showgrid="false"/>
  <path id="path4000" d="M13.45.5h273.09c7.18,0,12.95,5.78,12.95,12.95v273.09c0,7.18-5.78,12.95-12.95,12.95H13.45c-7.18,0-12.95-5.78-12.95-12.95V13.45C.5,6.28,6.28.5,13.45.5h0Z" inkscape:connector-curvature="0"/>
  <g id="g4002">
    <path id="path4004" class="st0" d="M49.47,217.17c0-5.08,3.64-5.16,5.37-5.16,4.91,0,9.06,1.18,15.59,1.18,13.66,0,14-6.85,17.39-22.38h-6.34c-15.8,0-16.93-12.82-19.29-21.09l-13.4-48.06s-1.23-4.39-1.23-7.35c0-5.33,3.69-6.39,7.07-6.39h4.04c4.78,0,5.83,1.5,8.24,9.81l12.84,49.07c1.73,5.82.88,8.64,11.1,8.64l14.25-61.58c.81-3.41,2.62-5.95,7.01-5.95h4.99c3.99,0,6.06,2.34,6.06,6.28,0,3.18-1.96,11.22-1.96,11.22l-21.42,86.65c-.97,2.49-4.66,17.39-27.65,17.39-13.49,0-22.65-1.07-22.65-7.25v-5.03Z" inkscape:connector-curvature="0" sodipodi:nodetypes="cccccccccccccccccccccc"/>
    <path id="path4006" class="st0" d="M144.05,184.81v-103.07h-4.05c-3.99,0-7.61-1.62-7.61-5.63v-6.27c0-3.12,2.44-5.27,6.58-5.27h14.71c7.88,0,8.05,7.82,8.05,13.68v106.52c0,2.65-.59,6.86-6.86,6.86h-4.16c-4.09,0-6.66-1.59-6.66-6.82h0Z" inkscape:connector-curvature="0" sodipodi:nodetypes="cccccccccccc"/>
  </g>
  <path id="path4008" class="st0" d="M219.16,105.61c-21.2,0-37.12,9.38-37.12,41.69v7.2c0,29.04,14.92,38.28,34.98,38.28h9.38c14.4,0,23.48-3.4,23.48-7.69v-5.08c0-2.89-1.85-5.14-4.87-5.14-4.16,0-8.65,2.18-20.36,2.18-17.49,0-24.58-2.07-24.58-21.69h41.91c5.33,0,11.46-2.12,11.46-10.36v-3.85c0-23.17-11.67-35.53-34.29-35.53ZM219.44,119.17c13.48,0,17.84,9.68,17.84,21.73h-36.84c0-11.57,4.51-21.73,19-21.73Z" inkscape:connector-curvature="0"/>
</svg>